<svg
                        width="243"
                        height="97"
                        viewBox="0 0 243 97"
                        fill="none"
                        xmlns="http://www.w3.org/2000/svg"
                  >
                        <path
                              d="M242 83.5C184.833 91 56.7 97.2 1.5 62"
                              stroke="#5AE4A7"
                              stroke-width="4"
                        />
                        <path
                              d="M2.1278 62C1.6278 66.6667 2.3278 76.6 9.1278 79"
                              stroke="#5AE4A7"
                              stroke-width="4"
                        />
                        <path
                              d="M1.5 63.5C4 61 11.2 57 20 61"
                              stroke="#5AE4A7"
                              stroke-width="4"
                        />
                        <path
                              d="M82.3203 0C84.599 0 86.4544 0.651042 87.8867 1.95312C89.3841 3.1901 90.0352 5.46875 89.8398 8.78906C89.7747 9.89583 89.5143 11.9792 89.0586 15.0391C88.6029 18.0339 88.0495 21.582 87.3984 25.6836C86.7474 29.7852 85.9987 34.2122 85.1523 38.9648C84.3711 43.6523 83.6224 48.2422 82.9062 52.7344H84.957C85.6081 52.7344 86.3242 52.7018 87.1055 52.6367C87.8867 52.5716 88.7005 52.474 89.5469 52.3438C89.2214 53.125 88.8633 53.8737 88.4727 54.5898C88.082 55.2409 87.6914 55.8268 87.3008 56.3477C86.8451 56.9336 86.3893 57.4544 85.9336 57.9102C85.3477 58.6263 84.6641 59.2773 83.8828 59.8633C83.1016 60.3841 82.3529 60.8073 81.6367 61.1328C81.181 64.3229 80.7904 67.1875 80.4648 69.7266C80.2044 72.2005 80.0417 74.2513 79.9766 75.8789C79.8464 78.3529 79.9115 80.6641 80.1719 82.8125C80.3672 84.7005 80.7578 86.6211 81.3438 88.5742C81.9297 90.5273 82.8737 92.0898 84.1758 93.2617L72.8477 96.9727C72.0664 95.8659 71.4805 94.3685 71.0898 92.4805C70.7643 90.6576 70.5365 88.8346 70.4062 87.0117C70.2109 84.8633 70.1784 82.6497 70.3086 80.3711C70.4388 78.0924 70.7969 75.1302 71.3828 71.4844C71.9688 67.7734 72.6198 63.737 73.3359 59.375C72.0339 58.9844 70.6016 58.6589 69.0391 58.3984C67.5417 58.138 65.849 58.0078 63.9609 58.0078C62.2682 58.0078 60.4779 58.0729 58.5898 58.2031C56.7669 58.3333 54.944 58.4961 53.1211 58.6914C52.3398 61.556 51.5586 64.5833 50.7773 67.7734C49.931 71.224 49.1497 74.1536 48.4336 76.5625C47.7826 79.0365 47.1315 81.0872 46.4805 82.7148C45.8945 84.3424 45.276 85.6445 44.625 86.6211C44.0391 87.5977 43.388 88.3138 42.6719 88.7695C41.8906 89.1602 40.9141 89.5182 39.7422 89.8438C38.6354 90.1693 37.2357 90.4948 35.543 90.8203C33.8503 91.1458 31.6693 91.4062 29 91.6016C29.9766 90.4297 30.8229 89.3555 31.5391 88.3789C32.2552 87.4023 32.9714 86.1979 33.6875 84.7656C34.4036 83.3333 35.2174 81.4779 36.1289 79.1992C36.9753 76.9857 38.082 74.056 39.4492 70.4102C40.0352 68.9128 40.6211 67.2852 41.207 65.5273C41.8581 63.7044 42.5417 61.849 43.2578 59.9609C40.9141 60.2865 38.9284 60.5794 37.3008 60.8398C35.6732 61.1003 34.6966 61.2956 34.3711 61.4258C33.8503 61.4909 33.4271 61.4909 33.1016 61.4258C32.2552 61.2956 31.7995 60.8724 31.7344 60.1562C31.7995 59.2448 32.125 58.6263 32.7109 58.3008C33.2318 57.9753 34.0456 57.5846 35.1523 57.1289C35.6732 56.8685 36.8776 56.4128 38.7656 55.7617C40.5885 55.0456 42.8346 54.2969 45.5039 53.5156C46.4805 50.7812 47.4245 48.0794 48.3359 45.4102C49.3125 42.6758 50.2565 40.0716 51.168 37.5977C52.0794 35.1237 52.9583 32.8125 53.8047 30.6641C54.651 28.4505 55.4323 26.5625 56.1484 25C57.2552 22.5911 58.6549 19.9544 60.3477 17.0898C62.1055 14.1602 64.0911 11.4258 66.3047 8.88672C68.5833 6.34766 71.0573 4.23177 73.7266 2.53906C76.4609 0.846354 79.3255 0 82.3203 0ZM81.2461 20.3125C81.9622 17.3828 82.4505 14.974 82.7109 13.0859C82.9714 11.1979 83.069 9.73307 83.0039 8.69141C82.9388 7.58464 82.7109 6.83594 82.3203 6.44531C81.9948 5.98958 81.5716 5.76172 81.0508 5.76172C80.2044 5.76172 79.1628 6.08724 77.9258 6.73828C76.6888 7.38932 75.3867 8.33333 74.0195 9.57031C72.6523 10.7422 71.2852 12.2396 69.918 14.0625C68.6159 15.8203 67.444 17.8385 66.4023 20.1172C64.9049 23.5026 63.2122 27.6693 61.3242 32.6172C59.4362 37.5 57.3854 43.75 55.1719 51.3672C56.474 51.1719 57.7435 51.0091 58.9805 50.8789C60.2826 50.7487 61.5521 50.6836 62.7891 50.6836C65.0026 50.6836 67.1185 50.7812 69.1367 50.9766C71.1549 51.1068 73.0104 51.2695 74.7031 51.4648C75.2891 48.3398 75.875 45.2799 76.4609 42.2852C77.112 39.2253 77.7305 36.3281 78.3164 33.5938C78.9023 30.8594 79.4232 28.3529 79.8789 26.0742C80.3997 23.7956 80.8555 21.875 81.2461 20.3125Z"
                              fill="white"
                        />
                        <path
                              d="M131.344 48.8281C131.604 48.4375 131.93 48.2096 132.32 48.1445C132.776 48.0143 133.134 48.0469 133.395 48.2422C133.655 48.4375 133.785 48.763 133.785 49.2188C133.85 49.6745 133.688 50.293 133.297 51.0742C131.995 53.5482 130.27 56.2174 128.121 59.082C126.038 61.9466 123.824 64.6484 121.48 67.1875C119.137 69.6615 116.858 71.7122 114.645 73.3398C112.431 74.9674 110.576 75.7812 109.078 75.7812C106.93 75.7812 105.139 75.3581 103.707 74.5117C102.275 73.6654 101.135 72.6237 100.289 71.3867C99.5078 70.1497 98.9544 68.8151 98.6289 67.3828C98.3034 65.8854 98.2057 64.5182 98.3359 63.2812C98.401 62.2396 98.6289 60.3841 99.0195 57.7148C99.4102 54.9805 99.931 51.8555 100.582 48.3398C101.233 44.7591 101.949 40.9505 102.73 36.9141C103.577 32.8125 104.456 28.8737 105.367 25.0977C104.26 25.2279 103.154 25.3581 102.047 25.4883C100.94 25.6185 99.931 25.6836 99.0195 25.6836C96.9362 25.6836 94.9831 25.4557 93.1602 25C91.2721 24.4792 89.8724 23.9909 88.9609 23.5352C88.4401 23.2747 88.2122 22.9167 88.2773 22.4609C88.3424 21.9401 88.5378 21.4518 88.8633 20.9961C89.1888 20.4753 89.612 20.0521 90.1328 19.7266C90.5885 19.3359 91.0117 19.1406 91.4023 19.1406C92.6393 19.2708 93.974 19.401 95.4062 19.5312C96.8385 19.5964 98.401 19.5964 100.094 19.5312C101.331 19.4661 102.503 19.3685 103.609 19.2383C104.781 19.1081 105.921 18.9453 107.027 18.75C107.874 15.625 108.688 12.9232 109.469 10.6445C110.315 8.30078 111.064 6.67318 111.715 5.76172C111.91 5.4362 112.333 5.17578 112.984 4.98047C113.701 4.72005 114.449 4.55729 115.23 4.49219C116.012 4.36198 116.76 4.36198 117.477 4.49219C118.193 4.55729 118.714 4.78516 119.039 5.17578C119.365 5.69661 119.495 7.03125 119.43 9.17969C119.365 11.3281 119.007 14.0625 118.355 17.3828C121.09 17.3828 123.499 17.5456 125.582 17.8711C127.73 18.1315 129.553 18.457 131.051 18.8477C132.548 19.1732 133.753 19.5312 134.664 19.9219C135.576 20.2474 136.259 20.4753 136.715 20.6055C137.171 20.7357 137.398 21.0612 137.398 21.582C137.464 22.1029 137.366 22.6562 137.105 23.2422C136.91 23.763 136.552 24.2188 136.031 24.6094C135.51 25 134.924 25.1302 134.273 25C133.622 24.9349 132.874 24.8047 132.027 24.6094C131.246 24.4141 130.27 24.2513 129.098 24.1211C127.991 23.9909 126.656 23.8607 125.094 23.7305C123.531 23.6003 121.708 23.5352 119.625 23.5352C119.234 23.5352 118.779 23.5677 118.258 23.6328C117.802 23.6328 117.314 23.6328 116.793 23.6328C116.533 24.6745 116.272 25.7161 116.012 26.7578C115.816 27.7344 115.523 28.776 115.133 29.8828C114.286 32.487 113.31 35.319 112.203 38.3789C111.227 41.0482 110.055 44.1081 108.688 47.5586C107.32 51.0091 105.79 54.6875 104.098 58.5938C103.707 61.3932 103.74 63.5417 104.195 65.0391C104.716 66.4714 105.335 67.513 106.051 68.1641C106.897 68.8802 107.939 69.2708 109.176 69.3359C110.152 69.4661 111.324 69.1406 112.691 68.3594C114.124 67.513 115.589 66.4062 117.086 65.0391C118.583 63.6719 120.081 62.1745 121.578 60.5469C123.141 58.9193 124.573 57.3242 125.875 55.7617C127.177 54.1992 128.316 52.7995 129.293 51.5625C130.27 50.2604 130.953 49.349 131.344 48.8281Z"
                              fill="white"
                        />
                        <path
                              d="M121.773 73.0469C121.318 73.763 120.829 74.2188 120.309 74.4141C119.723 74.6745 119.234 74.707 118.844 74.5117C118.388 74.3815 118.095 74.056 117.965 73.5352C117.835 73.0143 117.965 72.3633 118.355 71.582C118.551 71.1914 119.007 70.3125 119.723 68.9453C120.374 67.5781 121.188 65.9505 122.164 64.0625C123.076 62.1094 124.085 60.026 125.191 57.8125C126.298 55.5339 127.34 53.3854 128.316 51.3672C129.358 49.349 130.302 47.5586 131.148 45.9961C131.995 44.3685 132.613 43.1966 133.004 42.4805C132.288 41.8294 131.799 41.3737 131.539 41.1133C131.279 40.7878 131.083 40.1367 130.953 39.1602C130.823 38.3138 131.018 37.207 131.539 35.8398C132.06 34.4727 132.743 33.1706 133.59 31.9336C134.436 30.6315 135.38 29.5247 136.422 28.6133C137.464 27.7018 138.473 27.2461 139.449 27.2461C141.272 27.2461 142.542 27.832 143.258 29.0039C144.039 30.1758 144.495 31.3802 144.625 32.6172C144.755 33.4635 144.69 34.5378 144.43 35.8398C144.169 37.1419 143.681 38.3138 142.965 39.3555C143.16 39.4857 143.421 39.6484 143.746 39.8438C144.072 39.974 144.592 40.0391 145.309 40.0391C146.35 40.0391 147.066 39.974 147.457 39.8438C147.913 39.7135 148.596 39.6484 149.508 39.6484C150.615 39.6484 151.526 39.9414 152.242 40.5273C152.958 41.0482 153.544 41.7318 154 42.5781C154.456 43.3594 154.781 44.2383 154.977 45.2148C155.237 46.1263 155.4 46.9727 155.465 47.7539C155.66 49.3815 155.237 51.0742 154.195 52.832C153.154 54.5898 151.884 56.5104 150.387 58.5938C149.475 59.8958 148.564 61.3607 147.652 62.9883C146.741 64.6159 146.35 66.0807 146.48 67.3828C146.611 68.2292 146.839 68.9128 147.164 69.4336C147.49 69.9544 148.401 70.2148 149.898 70.2148C151.005 70.2148 152.21 69.8242 153.512 69.043C154.879 68.1966 156.246 67.1549 157.613 65.918C159.046 64.6159 160.445 63.2161 161.812 61.7188C163.18 60.1562 164.449 58.6589 165.621 57.2266C166.793 55.7292 167.77 54.3945 168.551 53.2227C169.397 52.0508 170.016 51.2044 170.406 50.6836C170.732 50.1628 171.155 49.8047 171.676 49.6094C172.197 49.4141 172.652 49.4141 173.043 49.6094C173.434 49.8047 173.661 50.1953 173.727 50.7812C173.857 51.3672 173.629 52.1484 173.043 53.125C172.652 53.776 171.969 54.8177 170.992 56.25C170.081 57.6823 168.941 59.2773 167.574 61.0352C166.272 62.793 164.807 64.6159 163.18 66.5039C161.552 68.3268 159.827 70.0195 158.004 71.582C156.246 73.0794 154.456 74.3164 152.633 75.293C150.875 76.2695 149.182 76.7578 147.555 76.7578C145.862 76.7578 144.462 76.4323 143.355 75.7812C142.249 75.1302 141.337 74.349 140.621 73.4375C139.97 72.4609 139.482 71.4193 139.156 70.3125C138.896 69.1406 138.798 68.0664 138.863 67.0898C138.928 66.3086 139.124 65.4948 139.449 64.6484C139.84 63.737 140.263 62.8255 140.719 61.9141C141.24 60.9375 141.76 59.9935 142.281 59.082C142.867 58.1055 143.388 57.1615 143.844 56.25C144.951 54.362 145.829 52.7669 146.48 51.4648C147.197 50.0977 147.555 48.9583 147.555 48.0469C147.555 47.4609 147.424 46.9401 147.164 46.4844C146.904 46.0286 146.48 45.8008 145.895 45.8008C145.504 45.8008 145.211 45.8333 145.016 45.8984C144.885 45.8984 144.723 45.8984 144.527 45.8984C144.397 45.8984 144.169 45.931 143.844 45.9961C143.583 45.9961 143.16 45.9961 142.574 45.9961C141.728 45.9961 141.012 45.8659 140.426 45.6055C139.84 45.3451 139.286 45.1497 138.766 45.0195C138.505 45.4753 137.919 46.4518 137.008 47.9492C136.096 49.4466 135.022 51.2044 133.785 53.2227C132.613 55.2409 131.344 57.3568 129.977 59.5703C128.674 61.7839 127.438 63.8672 126.266 65.8203C125.094 67.7083 124.117 69.3359 123.336 70.7031C122.49 72.0052 121.969 72.7865 121.773 73.0469Z"
                              fill="white"
                        />
                        <path
                              d="M216.207 54.1016C215.296 55.4036 214.124 57.0312 212.691 58.9844C211.259 60.8724 209.762 62.793 208.199 64.7461C206.702 66.6341 205.204 68.3919 203.707 70.0195C202.275 71.582 201.07 72.6888 200.094 73.3398C199.443 73.7305 198.694 74.056 197.848 74.3164C197.001 74.5768 196.122 74.7396 195.211 74.8047C194.365 74.8698 193.551 74.8047 192.77 74.6094C191.988 74.4792 191.305 74.2188 190.719 73.8281C190.133 73.3724 189.645 72.7214 189.254 71.875C188.928 71.1589 188.603 70.2148 188.277 69.043C188.017 67.8711 187.919 66.4062 187.984 64.6484C186.422 67.2526 184.697 69.2708 182.809 70.7031C180.921 72.0703 179.13 73.0794 177.438 73.7305C175.484 74.4466 173.531 74.8698 171.578 75C170.667 75 169.69 74.6745 168.648 74.0234C167.607 73.4375 166.728 72.4935 166.012 71.1914C165.296 69.8242 164.84 68.099 164.645 66.0156C164.449 63.8672 164.71 61.3281 165.426 58.3984C166.337 54.4271 167.77 50.8138 169.723 47.5586C171.741 44.3034 173.922 41.5365 176.266 39.2578C178.609 36.9141 180.921 35.1562 183.199 33.9844C185.478 32.8125 187.366 32.2917 188.863 32.4219C190.621 32.7474 192.053 33.2682 193.16 33.9844C194.072 34.6354 194.658 35.612 194.918 36.9141C195.243 38.151 194.723 39.8112 193.355 41.8945C194.267 41.6992 195.016 41.569 195.602 41.5039C196.253 41.4388 196.741 41.4062 197.066 41.4062C197.457 41.4062 197.717 41.4388 197.848 41.5039C197.913 41.6341 197.945 41.9271 197.945 42.3828C197.945 42.7734 197.848 43.5221 197.652 44.6289C197.457 45.7357 197.164 47.2331 196.773 49.1211C196.383 51.0091 195.862 53.4505 195.211 56.4453C195.081 57.0312 194.951 57.5846 194.82 58.1055C194.755 58.5612 194.658 59.0495 194.527 59.5703C194.462 60.026 194.365 60.5794 194.234 61.2305C194.104 61.8815 193.941 62.6953 193.746 63.6719C193.681 64.2578 193.648 64.9089 193.648 65.625C193.714 66.276 193.844 66.8945 194.039 67.4805C194.234 68.0664 194.527 68.5547 194.918 68.9453C195.374 69.2708 195.992 69.4336 196.773 69.4336C197.424 69.4336 198.271 69.043 199.312 68.2617C200.354 67.4154 201.461 66.3737 202.633 65.1367C203.805 63.8346 205.009 62.4349 206.246 60.9375C207.548 59.375 208.753 57.8776 209.859 56.4453C210.966 55.013 211.943 53.7435 212.789 52.6367C213.701 51.5299 214.352 50.7161 214.742 50.1953C215.263 49.6094 215.784 49.2839 216.305 49.2188C216.826 49.0885 217.216 49.2188 217.477 49.6094C217.737 50 217.77 50.5859 217.574 51.3672C217.444 52.1484 216.988 53.0599 216.207 54.1016ZM187.594 58.3984C187.919 57.0964 188.31 55.5664 188.766 53.8086C189.221 52.0508 189.612 50.3581 189.938 48.7305C190.263 47.1029 190.491 45.7682 190.621 44.7266C190.816 43.6198 190.784 43.099 190.523 43.1641C190.198 43.2292 189.84 43.3268 189.449 43.457C189.124 43.5872 188.701 43.6849 188.18 43.75C187.659 43.8151 187.138 43.9128 186.617 44.043C187.138 43.0013 187.431 42.1549 187.496 41.5039C187.626 40.7878 187.659 40.2344 187.594 39.8438C187.529 39.388 187.398 39.0299 187.203 38.7695C186.487 38.1836 185.217 38.6719 183.395 40.2344C181.637 41.7318 179.586 44.5312 177.242 48.6328C176.266 50.3255 175.484 52.1484 174.898 54.1016C174.312 55.9896 173.889 57.7799 173.629 59.4727C173.434 61.1654 173.401 62.6628 173.531 63.9648C173.661 65.2018 173.922 66.0156 174.312 66.4062C175.029 67.1224 175.842 67.4805 176.754 67.4805C177.665 67.4154 178.577 67.1549 179.488 66.6992C180.465 66.1784 181.409 65.5273 182.32 64.7461C183.297 63.9648 184.143 63.151 184.859 62.3047C185.641 61.4583 186.259 60.6771 186.715 59.9609C187.236 59.2448 187.529 58.724 187.594 58.3984ZM194.332 13.4766C194.918 13.0208 195.569 13.0534 196.285 13.5742C197.001 14.0951 197.522 14.8763 197.848 15.918C198.303 17.2852 198.336 18.3268 197.945 19.043C197.555 19.694 196.969 20.2799 196.188 20.8008C195.797 21.1263 195.048 21.582 193.941 22.168C192.9 22.7539 191.728 23.3724 190.426 24.0234C189.189 24.6094 187.952 25.1628 186.715 25.6836C185.478 26.1393 184.534 26.3997 183.883 26.4648C183.167 26.5299 182.613 26.4648 182.223 26.2695C181.832 26.0091 181.507 25.7161 181.246 25.3906C181.051 25.0651 180.921 24.707 180.855 24.3164C180.79 23.8607 180.758 23.4701 180.758 23.1445C185.836 19.6289 189.384 17.1224 191.402 15.625C192.574 14.7786 193.551 14.0625 194.332 13.4766Z"
                              fill="white"
                        />
                        <path
                              d="M223.434 70.2148C223.824 70.4753 224.312 70.6055 224.898 70.6055C225.549 70.6055 226.168 70.4753 226.754 70.2148C227.405 69.9544 227.991 69.5964 228.512 69.1406C229.098 68.6849 229.521 68.099 229.781 67.3828C230.042 66.6667 230.042 65.6576 229.781 64.3555C229.521 62.9883 229.098 61.556 228.512 60.0586C227.991 58.4961 227.405 56.9336 226.754 55.3711C226.103 53.8086 225.549 52.3763 225.094 51.0742C224.703 50.0977 224.378 49.1862 224.117 48.3398C223.857 47.6237 223.596 46.9401 223.336 46.2891C223.141 45.5729 222.978 45.0846 222.848 44.8242C222.522 45.3451 221.936 46.1914 221.09 47.3633C220.309 48.5352 219.43 49.7721 218.453 51.0742C217.542 52.3112 216.663 53.4831 215.816 54.5898C214.97 55.6315 214.384 56.3477 214.059 56.7383C213.538 57.3242 213.017 57.6823 212.496 57.8125C212.04 57.8776 211.65 57.7799 211.324 57.5195C210.999 57.194 210.803 56.7708 210.738 56.25C210.738 55.6641 210.999 54.9805 211.52 54.1992C211.91 53.6784 212.496 52.8646 213.277 51.7578C214.059 50.5859 214.84 49.4141 215.621 48.2422C216.402 47.0052 217.118 45.931 217.77 45.0195C218.421 44.043 218.779 43.457 218.844 43.2617C218.974 42.7409 218.779 42.0573 218.258 41.2109C217.802 40.3646 217.737 39.388 218.062 38.2812C218.323 37.3698 218.909 36.3281 219.82 35.1562C220.732 33.9193 221.806 32.8125 223.043 31.8359C224.28 30.8594 225.549 30.1432 226.852 29.6875C228.154 29.1667 229.326 29.1667 230.367 29.6875C231.214 30.2083 231.897 30.7943 232.418 31.4453C232.939 32.0312 233.134 32.6497 233.004 33.3008C232.874 33.6263 232.678 34.0495 232.418 34.5703C232.158 35.0911 231.767 35.7422 231.246 36.5234C230.725 37.2396 229.977 38.1836 229 39.3555C229.195 40.8529 229.456 42.2201 229.781 43.457C230.172 44.694 230.53 45.7682 230.855 46.6797C231.246 47.7865 231.669 48.7956 232.125 49.707C232.711 50.8789 233.329 52.0833 233.98 53.3203C234.632 54.5573 235.217 55.7943 235.738 57.0312C236.259 58.2031 236.682 59.3099 237.008 60.3516C237.333 61.3932 237.431 62.2721 237.301 62.9883C237.105 64.0951 236.52 65.4297 235.543 66.9922C234.632 68.5547 233.46 70.0846 232.027 71.582C230.66 73.0143 229.065 74.2513 227.242 75.293C225.484 76.3346 223.629 76.8555 221.676 76.8555C220.309 76.8555 218.974 76.4323 217.672 75.5859C216.435 74.7396 215.361 73.763 214.449 72.6562C213.603 71.4844 212.952 70.3451 212.496 69.2383C212.105 68.1315 212.073 67.2852 212.398 66.6992C212.789 65.918 213.147 65.2995 213.473 64.8438C213.798 64.388 214.286 63.8672 214.938 63.2812C215.198 63.0859 215.523 62.8581 215.914 62.5977C216.24 62.4023 216.695 62.207 217.281 62.0117C217.867 61.8164 218.551 61.5885 219.332 61.3281C219.983 63.3464 220.569 64.9414 221.09 66.1133C221.611 67.2201 222.034 68.099 222.359 68.75C222.75 69.4661 223.108 69.9544 223.434 70.2148Z"
                              fill="white"
                        />
                  </svg>