<svg
                                          width="36"
                                          height="36"
                                          viewBox="0 0 36 36"
                                          fill="none"
                                          xmlns="http://www.w3.org/2000/svg"
                                    >
                                          <circle
                                                cx="18"
                                                cy="18"
                                                r="18"
                                                fill="#3F51B5"
                                          />
                                          <path
                                                d="M17.0863 14.4631C17.2532 14.6299 17.5238 14.6299 17.6907 14.4631L21.2503 10.905C22.3129 9.84286 24.0352 9.84286 25.0979 10.905C26.1602 11.9669 26.1602 13.6891 25.0979 14.7509L21.5365 18.3108C21.3706 18.4766 21.3706 18.7455 21.5365 18.9113L22.9983 20.3724C23.1652 20.5392 23.4357 20.5392 23.6026 20.3724L27.3482 16.6285C29.5505 14.4272 29.5505 10.857 27.3482 8.6557C25.1453 6.45377 21.5748 6.45377 19.3719 8.6557L15.6245 12.4014C15.4587 12.5672 15.4587 12.8361 15.6245 13.0019L17.0863 14.4631Z"
                                                fill="white"
                                          />
                                          <path
                                                d="M18.7737 21.6766C18.6068 21.5098 18.3363 21.5098 18.1694 21.6766L14.7497 25.0948C13.6871 26.1569 11.9647 26.1569 10.9021 25.0948C9.83975 24.0329 9.83975 22.3107 10.9021 21.2488L14.3235 17.8289C14.4894 17.6631 14.4894 17.3942 14.3235 17.2284L12.8617 15.7673C12.6948 15.6005 12.4243 15.6005 12.2574 15.7673L8.65177 19.3713C6.44945 21.5727 6.44945 25.1428 8.65177 27.3441C10.8546 29.5461 14.4252 29.5461 16.6281 27.3441L20.2355 23.7383C20.4014 23.5725 20.4014 23.3036 20.2355 23.1378L18.7737 21.6766Z"
                                                fill="white"
                                          />
                                          <path
                                                d="M7.49742 14.2345L10.5247 14.991C10.5772 15.0041 10.6297 15.0104 10.6815 15.0104C10.9702 15.0104 11.233 14.8149 11.3061 14.5221C11.3925 14.1768 11.1825 13.8269 10.8372 13.7407L7.80987 12.9842C7.46455 12.8981 7.11473 13.1079 7.02846 13.4531C6.9422 13.7984 7.15215 14.1482 7.49742 14.2345V14.2345Z"
                                                fill="white"
                                          />
                                          <path
                                                d="M12.067 12.9808C12.1929 13.1066 12.3577 13.1694 12.5226 13.1694C12.6875 13.1694 12.8525 13.1065 12.9783 12.9806C13.2299 12.7289 13.2298 12.3208 12.9782 12.0693L10.632 9.72415C10.3803 9.47253 9.97228 9.47262 9.7207 9.72432C9.46913 9.97603 9.46921 10.3841 9.72087 10.6356L12.067 12.9808Z"
                                                fill="white"
                                          />
                                          <path
                                                d="M13.7391 10.8412C13.8123 11.134 14.075 11.3294 14.3638 11.3294C14.4155 11.3294 14.4681 11.3232 14.5206 11.31C14.8659 11.2237 15.0758 10.8737 14.9894 10.5285L14.2326 7.50253C14.1462 7.15725 13.7964 6.94731 13.4511 7.03374C13.1058 7.12009 12.8959 7.47 12.9823 7.81523L13.7391 10.8412Z"
                                                fill="white"
                                          />
                                          <path
                                                d="M28.5025 21.7654L25.4752 21.009C25.13 20.9228 24.7801 21.1326 24.6938 21.478C24.6075 21.8232 24.8175 22.173 25.1628 22.2594L28.1901 23.0158C28.2426 23.0289 28.2951 23.0352 28.3468 23.0352C28.6356 23.0352 28.8983 22.8397 28.9715 22.5469C29.0578 22.2016 28.8478 21.8517 28.5025 21.7654V21.7654Z"
                                                fill="white"
                                          />
                                          <path
                                                d="M23.933 23.0192C23.6812 22.7676 23.2732 22.7677 23.0216 23.0194C22.7701 23.2711 22.7701 23.6791 23.0218 23.9307L25.368 26.2758C25.4938 26.4016 25.6587 26.4645 25.8235 26.4645C25.9885 26.4645 26.1535 26.4015 26.2793 26.2756C26.5309 26.0239 26.5308 25.6159 26.2791 25.3643L23.933 23.0192Z"
                                                fill="white"
                                          />
                                          <path
                                                d="M22.2609 25.1594C22.1745 24.8141 21.8248 24.6042 21.4794 24.6906C21.1341 24.777 20.9243 25.1269 21.0106 25.4721L21.7675 28.4981C21.8407 28.7909 22.1034 28.9863 22.3921 28.9863C22.4439 28.9863 22.4965 28.98 22.549 28.9669C22.8943 28.8805 23.1041 28.5306 23.0178 28.1854L22.2609 25.1594Z"
                                                fill="white"
                                          />
                                    </svg>